<?xml version="1.0" encoding="iso-8859-1"?>
<!-- Generator: Adobe Illustrator 19.0.0, SVG Export Plug-In . SVG Version: 6.00 Build 0)  -->
<svg xmlns="http://www.w3.org/2000/svg" xmlns:xlink="http://www.w3.org/1999/xlink" version="1.1" id="Layer_1" x="0px" y="0px" viewBox="0 0 512 512" style="enable-background:new 0 0 512 512;" xml:space="preserve">
<circle style="fill:#FFC850;" cx="256" cy="411.776" r="91.633"/>
<path style="fill:#EAB049;" d="M347.633,411.776c0-53.895-46.528-96.921-101.606-91.105c-41.731,4.406-75.866,38.005-80.959,79.658  c-1.672,13.683-0.292,26.845,3.507,38.937h0.049c11.683,37.164,46.356,64.143,87.376,64.143c11.301,0,22.076-2.144,32.072-5.885  c-21.911-8.201-39.747-24.559-49.982-45.356c-2.931-5.956,1.73-12.902,8.368-12.902h96.967  C346.152,430.586,347.633,421.355,347.633,411.776z"/>
<path style="fill:#FFDC64;" d="M490.696,411.776H21.304c-6.254,0-10.671-6.128-8.693-12.061l28.871-86.613  c2.491-7.475,3.762-15.303,3.762-23.182v-70.574C45.244,102.95,139.603,8.591,256,8.591l0,0  c116.397,0,210.756,94.359,210.756,210.756v70.574c0,7.879,1.27,15.707,3.762,23.182l28.871,86.613  C501.367,405.648,496.95,411.776,490.696,411.776z"/>
<path style="fill:#FFC850;" d="M137.232,399.715l21.487-86.614c1.854-7.475,2.799-15.302,2.799-23.181v-70.574  c0-104.202,56.295-190.683,130.239-207.674C280.129,9.684,268.196,8.591,256,8.591c-116.398,0-210.756,94.358-210.756,210.756  v70.575c0,7.879-1.27,15.706-3.762,23.181l-28.871,86.613c-1.978,5.933,2.439,12.061,8.694,12.061h122.398  C139.048,411.776,135.76,405.648,137.232,399.715z"/>
<path d="M507.539,396.999l-28.871-86.613c-2.204-6.61-3.321-13.496-3.321-20.465v-70.575C475.347,98.399,376.948,0,256,0  S36.653,98.399,36.653,219.347v70.574c0,6.969-1.118,13.855-3.321,20.465L4.461,396.999c-1.799,5.398-0.887,11.379,2.441,15.995  c3.327,4.616,8.711,7.373,14.402,7.373h134.844C160.521,471.624,203.631,512,256,512s95.479-40.376,99.851-91.633h134.844  c5.69,0,11.075-2.756,14.402-7.373C508.425,408.377,509.338,402.398,507.539,396.999z M256,494.819  c-42.889,0-78.286-32.683-82.599-74.452h165.197C334.286,462.136,298.889,494.819,256,494.819z M491.16,402.947  c-0.172,0.238-0.37,0.238-0.465,0.238H21.305c-0.095,0-0.293,0-0.465-0.238s-0.109-0.426-0.079-0.515l28.871-86.613  c2.789-8.366,4.203-17.079,4.203-25.898v-70.575c0-111.474,90.692-202.166,202.166-202.166s202.166,90.692,202.166,202.166v70.574  c0,8.819,1.413,17.533,4.203,25.898l28.871,86.613C491.269,402.521,491.332,402.709,491.16,402.947z"/>
<path d="M256,475.347c18.06,0,35.329-7.722,47.381-21.188c3.165-3.535,2.864-8.966-0.671-12.13  c-3.534-3.164-8.965-2.864-12.13,0.671c-8.798,9.829-21.402,15.465-34.58,15.465c-4.744,0-8.591,3.846-8.591,8.591  C247.409,471.5,251.256,475.347,256,475.347z"/>
<path d="M81.897,229.083c-4.744,0-8.591,3.846-8.591,8.591v52.247c0,10.916-1.75,21.701-5.202,32.056l-7.648,22.944  c-1.5,4.501,0.932,9.366,5.434,10.867c0.901,0.3,1.817,0.443,2.718,0.443c3.597,0,6.949-2.277,8.148-5.876l7.648-22.944  c4.036-12.11,6.083-24.723,6.083-37.489v-52.247C90.488,232.929,86.641,229.083,81.897,229.083z"/>
<path d="M371.395,77.805c-3.674-3.001-9.085-2.456-12.088,1.219c-3.001,3.674-2.455,9.087,1.22,12.088  c31.625,25.829,52.552,62.088,58.925,102.096c0.674,4.228,4.324,7.24,8.473,7.24c0.449,0,0.905-0.036,1.362-0.108  c4.686-0.747,7.878-5.15,7.132-9.835C429.382,146.327,406.289,106.304,371.395,77.805z"/>
<path d="M342.565,58.492c-6.22-3.359-12.693-6.383-19.243-8.988c-4.411-1.754-9.404,0.401-11.157,4.808  c-1.752,4.409,0.4,9.404,4.808,11.157c5.93,2.358,11.793,5.097,17.426,8.139c1.298,0.701,2.696,1.034,4.075,1.034  c3.055,0,6.012-1.633,7.565-4.509C348.295,65.959,346.739,60.747,342.565,58.492z"/>
<g>
</g>
<g>
</g>
<g>
</g>
<g>
</g>
<g>
</g>
<g>
</g>
<g>
</g>
<g>
</g>
<g>
</g>
<g>
</g>
<g>
</g>
<g>
</g>
<g>
</g>
<g>
</g>
<g>
</g>
</svg>
